<mxfile host="app.diagrams.net" agent="Mozilla/5.0 (X11; Linux x86_64) AppleWebKit/537.36 (KHTML, like Gecko) Chrome/130.0.0.0 Safari/537.36" version="24.8.4">
  <diagram name="Page-1" id="2YBvvXClWsGukQMizWep">
    <mxGraphModel dx="1366" dy="724" grid="1" gridSize="10" guides="1" tooltips="1" connect="1" arrows="1" fold="1" page="1" pageScale="1" pageWidth="850" pageHeight="1100" math="0" shadow="0">
      <root>
        <mxCell id="0" />
        <mxCell id="1" parent="0" />
        <mxCell id="Uxr3or9GegXW-BEm9JX9-5" value="User" style="shape=umlLifeline;perimeter=lifelinePerimeter;whiteSpace=wrap;container=1;dropTarget=0;collapsible=0;recursiveResize=0;outlineConnect=0;portConstraint=eastwest;newEdgeStyle={&quot;edgeStyle&quot;:&quot;elbowEdgeStyle&quot;,&quot;elbow&quot;:&quot;vertical&quot;,&quot;curved&quot;:0,&quot;rounded&quot;:0};size=65;fillColor=#dae8fc;strokeColor=#6c8ebf;" parent="1" vertex="1">
          <mxGeometry x="100" y="350" width="150" height="3329" as="geometry" />
        </mxCell>
        <mxCell id="Uxr3or9GegXW-BEm9JX9-6" value="Client" style="shape=umlLifeline;perimeter=lifelinePerimeter;whiteSpace=wrap;container=1;dropTarget=0;collapsible=0;recursiveResize=0;outlineConnect=0;portConstraint=eastwest;newEdgeStyle={&quot;edgeStyle&quot;:&quot;elbowEdgeStyle&quot;,&quot;elbow&quot;:&quot;vertical&quot;,&quot;curved&quot;:0,&quot;rounded&quot;:0};size=65;" parent="1" vertex="1">
          <mxGeometry x="300" y="350" width="150" height="3329" as="geometry" />
        </mxCell>
        <mxCell id="Uxr3or9GegXW-BEm9JX9-7" value=":Front-end App" style="shape=umlLifeline;perimeter=lifelinePerimeter;whiteSpace=wrap;container=1;dropTarget=0;collapsible=0;recursiveResize=0;outlineConnect=0;portConstraint=eastwest;newEdgeStyle={&quot;edgeStyle&quot;:&quot;elbowEdgeStyle&quot;,&quot;elbow&quot;:&quot;vertical&quot;,&quot;curved&quot;:0,&quot;rounded&quot;:0};size=65;" parent="1" vertex="1">
          <mxGeometry x="500" y="350" width="150" height="3329" as="geometry" />
        </mxCell>
        <mxCell id="Uxr3or9GegXW-BEm9JX9-8" value=":Back-end Server" style="shape=umlLifeline;perimeter=lifelinePerimeter;whiteSpace=wrap;container=1;dropTarget=0;collapsible=0;recursiveResize=0;outlineConnect=0;portConstraint=eastwest;newEdgeStyle={&quot;edgeStyle&quot;:&quot;elbowEdgeStyle&quot;,&quot;elbow&quot;:&quot;vertical&quot;,&quot;curved&quot;:0,&quot;rounded&quot;:0};size=65;" parent="1" vertex="1">
          <mxGeometry x="721" y="350" width="150" height="3329" as="geometry" />
        </mxCell>
        <mxCell id="Uxr3or9GegXW-BEm9JX9-9" value=":Authorization Server" style="shape=umlLifeline;perimeter=lifelinePerimeter;whiteSpace=wrap;container=1;dropTarget=0;collapsible=0;recursiveResize=0;outlineConnect=0;portConstraint=eastwest;newEdgeStyle={&quot;edgeStyle&quot;:&quot;elbowEdgeStyle&quot;,&quot;elbow&quot;:&quot;vertical&quot;,&quot;curved&quot;:0,&quot;rounded&quot;:0};size=65;" parent="1" vertex="1">
          <mxGeometry x="948" y="350" width="168" height="3329" as="geometry" />
        </mxCell>
        <mxCell id="Uxr3or9GegXW-BEm9JX9-10" value=":Resource Server" style="shape=umlLifeline;perimeter=lifelinePerimeter;whiteSpace=wrap;container=1;dropTarget=0;collapsible=0;recursiveResize=0;outlineConnect=0;portConstraint=eastwest;newEdgeStyle={&quot;edgeStyle&quot;:&quot;elbowEdgeStyle&quot;,&quot;elbow&quot;:&quot;vertical&quot;,&quot;curved&quot;:0,&quot;rounded&quot;:0};size=65;" parent="1" vertex="1">
          <mxGeometry x="1166" y="350" width="150" height="3329" as="geometry" />
        </mxCell>
        <mxCell id="Uxr3or9GegXW-BEm9JX9-11" value="Token Cache" style="shape=umlLifeline;perimeter=lifelinePerimeter;whiteSpace=wrap;container=1;dropTarget=0;collapsible=0;recursiveResize=0;outlineConnect=0;portConstraint=eastwest;newEdgeStyle={&quot;edgeStyle&quot;:&quot;elbowEdgeStyle&quot;,&quot;elbow&quot;:&quot;vertical&quot;,&quot;curved&quot;:0,&quot;rounded&quot;:0};size=65;" parent="1" vertex="1">
          <mxGeometry x="1366" y="350" width="150" height="3329" as="geometry" />
        </mxCell>
        <mxCell id="Uxr3or9GegXW-BEm9JX9-12" value="alt" style="shape=umlFrame;dashed=1;pointerEvents=0;dropTarget=0;strokeColor=#d79b00;height=20;width=30;fillColor=#ffe6cc;" parent="1" vertex="1">
          <mxGeometry x="164" y="1852" width="1288" height="634" as="geometry" />
        </mxCell>
        <mxCell id="Uxr3or9GegXW-BEm9JX9-13" value="[Token Request Failed]" style="text;strokeColor=none;fillColor=none;align=center;verticalAlign=middle;whiteSpace=wrap;" parent="Uxr3or9GegXW-BEm9JX9-12" vertex="1">
          <mxGeometry x="30" width="1258" height="20" as="geometry" />
        </mxCell>
        <mxCell id="Uxr3or9GegXW-BEm9JX9-14" value="[Token Request Successful]" style="shape=line;dashed=1;whiteSpace=wrap;verticalAlign=top;labelPosition=center;verticalLabelPosition=middle;align=center;strokeColor=#82b366;fillColor=#d5e8d4;" parent="Uxr3or9GegXW-BEm9JX9-12" vertex="1">
          <mxGeometry y="188" width="1288" height="4" as="geometry" />
        </mxCell>
        <mxCell id="Uxr3or9GegXW-BEm9JX9-15" value="alt" style="shape=umlFrame;dashed=1;pointerEvents=0;dropTarget=0;strokeColor=#d79b00;height=20;width=30;fillColor=#ffe6cc;" parent="1" vertex="1">
          <mxGeometry x="154" y="1556" width="1308" height="940" as="geometry" />
        </mxCell>
        <mxCell id="Uxr3or9GegXW-BEm9JX9-16" value="[Invalid State]" style="text;strokeColor=none;fillColor=none;align=center;verticalAlign=middle;whiteSpace=wrap;" parent="Uxr3or9GegXW-BEm9JX9-15" vertex="1">
          <mxGeometry x="30" width="1278" height="20" as="geometry" />
        </mxCell>
        <mxCell id="Uxr3or9GegXW-BEm9JX9-17" value="[Valid State]" style="shape=line;dashed=1;whiteSpace=wrap;verticalAlign=top;labelPosition=center;verticalLabelPosition=middle;align=center;strokeColor=#82b366;fillColor=#d5e8d4;" parent="Uxr3or9GegXW-BEm9JX9-15" vertex="1">
          <mxGeometry y="142" width="1308" height="4" as="geometry" />
        </mxCell>
        <mxCell id="Uxr3or9GegXW-BEm9JX9-18" value="alt" style="shape=umlFrame;dashed=1;pointerEvents=0;dropTarget=0;strokeColor=#b85450;height=20;width=30;fillColor=#f8cecc;fillStyle=auto;" parent="1" vertex="1">
          <mxGeometry x="144" y="1003" width="1328" height="1503" as="geometry" />
        </mxCell>
        <mxCell id="Uxr3or9GegXW-BEm9JX9-19" value="[Authentication Failed]" style="text;strokeColor=none;fillColor=none;align=center;verticalAlign=middle;whiteSpace=wrap;" parent="Uxr3or9GegXW-BEm9JX9-18" vertex="1">
          <mxGeometry x="30" width="1298" height="20" as="geometry" />
        </mxCell>
        <mxCell id="Uxr3or9GegXW-BEm9JX9-20" value="[Authentication Successful]" style="shape=line;dashed=1;whiteSpace=wrap;verticalAlign=top;labelPosition=center;verticalLabelPosition=middle;align=center;strokeColor=#b85450;fillColor=#f8cecc;" parent="Uxr3or9GegXW-BEm9JX9-18" vertex="1">
          <mxGeometry y="188" width="1328" height="4" as="geometry" />
        </mxCell>
        <mxCell id="Uxr3or9GegXW-BEm9JX9-21" value="alt" style="shape=umlFrame;dashed=1;pointerEvents=0;dropTarget=0;strokeColor=#d79b00;height=20;width=30;fillColor=#ffe6cc;" parent="1" vertex="1">
          <mxGeometry x="785" y="2608" width="667" height="183" as="geometry" />
        </mxCell>
        <mxCell id="Uxr3or9GegXW-BEm9JX9-22" value="[Token Expired]" style="text;strokeColor=none;fillColor=none;align=center;verticalAlign=middle;whiteSpace=wrap;" parent="Uxr3or9GegXW-BEm9JX9-21" vertex="1">
          <mxGeometry x="30" width="637" height="20" as="geometry" />
        </mxCell>
        <mxCell id="Uxr3or9GegXW-BEm9JX9-23" value="alt" style="shape=umlFrame;dashed=1;pointerEvents=0;dropTarget=0;strokeColor=#d79b00;height=20;width=30;fillColor=#ffe6cc;" parent="1" vertex="1">
          <mxGeometry x="164" y="2896" width="1088" height="412" as="geometry" />
        </mxCell>
        <mxCell id="Uxr3or9GegXW-BEm9JX9-24" value="[Invalid Token]" style="text;strokeColor=none;fillColor=none;align=center;verticalAlign=middle;whiteSpace=wrap;" parent="Uxr3or9GegXW-BEm9JX9-23" vertex="1">
          <mxGeometry x="30" width="1058" height="20" as="geometry" />
        </mxCell>
        <mxCell id="Uxr3or9GegXW-BEm9JX9-25" value="z" style="shape=line;dashed=1;whiteSpace=wrap;verticalAlign=top;labelPosition=center;verticalLabelPosition=middle;align=center;strokeColor=#B3B3B3;" parent="Uxr3or9GegXW-BEm9JX9-23" vertex="1">
          <mxGeometry y="234" width="1088" height="4" as="geometry" />
        </mxCell>
        <mxCell id="Uxr3or9GegXW-BEm9JX9-26" value="Generate code_verifier" style="curved=1;endArrow=block;rounded=0;" parent="1" source="Uxr3or9GegXW-BEm9JX9-7" target="Uxr3or9GegXW-BEm9JX9-7" edge="1">
          <mxGeometry relative="1" as="geometry">
            <Array as="points">
              <mxPoint x="626" y="453" />
              <mxPoint x="626" y="483" />
            </Array>
          </mxGeometry>
        </mxCell>
        <mxCell id="Uxr3or9GegXW-BEm9JX9-27" value="Generate code_challenge" style="curved=1;endArrow=block;rounded=0;" parent="1" source="Uxr3or9GegXW-BEm9JX9-7" target="Uxr3or9GegXW-BEm9JX9-7" edge="1">
          <mxGeometry relative="1" as="geometry">
            <Array as="points">
              <mxPoint x="626" y="531" />
              <mxPoint x="626" y="561" />
            </Array>
          </mxGeometry>
        </mxCell>
        <mxCell id="Uxr3or9GegXW-BEm9JX9-28" value="Initiates login" style="verticalAlign=bottom;edgeStyle=elbowEdgeStyle;elbow=vertical;curved=0;rounded=0;endArrow=block;" parent="1" source="Uxr3or9GegXW-BEm9JX9-5" target="Uxr3or9GegXW-BEm9JX9-7" edge="1">
          <mxGeometry relative="1" as="geometry">
            <Array as="points">
              <mxPoint x="384" y="607" />
            </Array>
          </mxGeometry>
        </mxCell>
        <mxCell id="Uxr3or9GegXW-BEm9JX9-29" value="Request auth URL" style="verticalAlign=bottom;edgeStyle=elbowEdgeStyle;elbow=vertical;curved=0;rounded=0;endArrow=block;" parent="1" source="Uxr3or9GegXW-BEm9JX9-7" target="Uxr3or9GegXW-BEm9JX9-8" edge="1">
          <mxGeometry relative="1" as="geometry">
            <Array as="points">
              <mxPoint x="694" y="653" />
            </Array>
          </mxGeometry>
        </mxCell>
        <mxCell id="Uxr3or9GegXW-BEm9JX9-30" value="Generate state &amp; nonce" style="curved=1;endArrow=block;rounded=0;" parent="1" source="Uxr3or9GegXW-BEm9JX9-8" target="Uxr3or9GegXW-BEm9JX9-8" edge="1">
          <mxGeometry relative="1" as="geometry">
            <Array as="points">
              <mxPoint x="847" y="699" />
              <mxPoint x="847" y="729" />
            </Array>
          </mxGeometry>
        </mxCell>
        <mxCell id="Uxr3or9GegXW-BEm9JX9-31" value="Store state, nonce, code_challenge" style="verticalAlign=bottom;edgeStyle=elbowEdgeStyle;elbow=vertical;curved=0;rounded=0;endArrow=block;" parent="1" source="Uxr3or9GegXW-BEm9JX9-8" target="Uxr3or9GegXW-BEm9JX9-11" edge="1">
          <mxGeometry relative="1" as="geometry">
            <Array as="points">
              <mxPoint x="1127" y="777" />
            </Array>
          </mxGeometry>
        </mxCell>
        <mxCell id="Uxr3or9GegXW-BEm9JX9-32" value="Return auth URL" style="verticalAlign=bottom;edgeStyle=elbowEdgeStyle;elbow=vertical;curved=0;rounded=0;endArrow=block;" parent="1" source="Uxr3or9GegXW-BEm9JX9-8" target="Uxr3or9GegXW-BEm9JX9-7" edge="1">
          <mxGeometry relative="1" as="geometry">
            <Array as="points">
              <mxPoint x="697" y="823" />
            </Array>
          </mxGeometry>
        </mxCell>
        <mxCell id="Uxr3or9GegXW-BEm9JX9-33" value="Authorization Request" style="verticalAlign=bottom;edgeStyle=elbowEdgeStyle;elbow=vertical;curved=0;rounded=0;endArrow=block;" parent="1" source="Uxr3or9GegXW-BEm9JX9-7" target="Uxr3or9GegXW-BEm9JX9-9" edge="1">
          <mxGeometry relative="1" as="geometry">
            <Array as="points">
              <mxPoint x="812" y="869" />
            </Array>
          </mxGeometry>
        </mxCell>
        <mxCell id="Uxr3or9GegXW-BEm9JX9-34" value="Login prompt" style="verticalAlign=bottom;edgeStyle=elbowEdgeStyle;elbow=vertical;curved=0;rounded=0;endArrow=block;" parent="1" source="Uxr3or9GegXW-BEm9JX9-9" target="Uxr3or9GegXW-BEm9JX9-5" edge="1">
          <mxGeometry relative="1" as="geometry">
            <Array as="points">
              <mxPoint x="615" y="983" />
            </Array>
          </mxGeometry>
        </mxCell>
        <mxCell id="Uxr3or9GegXW-BEm9JX9-35" value="Invalid credentials" style="verticalAlign=bottom;edgeStyle=elbowEdgeStyle;elbow=vertical;curved=0;rounded=0;endArrow=block;" parent="1" source="Uxr3or9GegXW-BEm9JX9-5" target="Uxr3or9GegXW-BEm9JX9-9" edge="1">
          <mxGeometry relative="1" as="geometry">
            <Array as="points">
              <mxPoint x="612" y="1074" />
            </Array>
          </mxGeometry>
        </mxCell>
        <mxCell id="Uxr3or9GegXW-BEm9JX9-36" value="Error response" style="verticalAlign=bottom;edgeStyle=elbowEdgeStyle;elbow=vertical;curved=0;rounded=0;endArrow=block;" parent="1" source="Uxr3or9GegXW-BEm9JX9-9" target="Uxr3or9GegXW-BEm9JX9-7" edge="1">
          <mxGeometry relative="1" as="geometry">
            <Array as="points">
              <mxPoint x="815" y="1120" />
            </Array>
          </mxGeometry>
        </mxCell>
        <mxCell id="Uxr3or9GegXW-BEm9JX9-37" value="Show error message" style="verticalAlign=bottom;edgeStyle=elbowEdgeStyle;elbow=vertical;curved=0;rounded=0;endArrow=block;" parent="1" source="Uxr3or9GegXW-BEm9JX9-7" target="Uxr3or9GegXW-BEm9JX9-5" edge="1">
          <mxGeometry relative="1" as="geometry">
            <Array as="points">
              <mxPoint x="387" y="1166" />
            </Array>
          </mxGeometry>
        </mxCell>
        <mxCell id="Uxr3or9GegXW-BEm9JX9-38" value="Valid credentials" style="verticalAlign=bottom;edgeStyle=elbowEdgeStyle;elbow=vertical;curved=0;rounded=0;endArrow=block;" parent="1" source="Uxr3or9GegXW-BEm9JX9-5" target="Uxr3or9GegXW-BEm9JX9-9" edge="1">
          <mxGeometry relative="1" as="geometry">
            <Array as="points">
              <mxPoint x="612" y="1257" />
            </Array>
          </mxGeometry>
        </mxCell>
        <mxCell id="Uxr3or9GegXW-BEm9JX9-39" value="Consent screen" style="verticalAlign=bottom;edgeStyle=elbowEdgeStyle;elbow=vertical;curved=0;rounded=0;endArrow=block;" parent="1" source="Uxr3or9GegXW-BEm9JX9-9" target="Uxr3or9GegXW-BEm9JX9-5" edge="1">
          <mxGeometry relative="1" as="geometry">
            <Array as="points">
              <mxPoint x="615" y="1303" />
            </Array>
          </mxGeometry>
        </mxCell>
        <mxCell id="Uxr3or9GegXW-BEm9JX9-40" value="Approve permissions" style="verticalAlign=bottom;edgeStyle=elbowEdgeStyle;elbow=vertical;curved=0;rounded=0;endArrow=block;" parent="1" source="Uxr3or9GegXW-BEm9JX9-5" target="Uxr3or9GegXW-BEm9JX9-9" edge="1">
          <mxGeometry relative="1" as="geometry">
            <Array as="points">
              <mxPoint x="612" y="1349" />
            </Array>
          </mxGeometry>
        </mxCell>
        <mxCell id="Uxr3or9GegXW-BEm9JX9-41" value="Redirect with auth code" style="verticalAlign=bottom;edgeStyle=elbowEdgeStyle;elbow=vertical;curved=0;rounded=0;endArrow=block;" parent="1" source="Uxr3or9GegXW-BEm9JX9-9" target="Uxr3or9GegXW-BEm9JX9-7" edge="1">
          <mxGeometry relative="1" as="geometry">
            <Array as="points">
              <mxPoint x="815" y="1395" />
            </Array>
          </mxGeometry>
        </mxCell>
        <mxCell id="Uxr3or9GegXW-BEm9JX9-42" value="Forward auth code" style="verticalAlign=bottom;edgeStyle=elbowEdgeStyle;elbow=vertical;curved=0;rounded=0;endArrow=block;" parent="1" source="Uxr3or9GegXW-BEm9JX9-7" target="Uxr3or9GegXW-BEm9JX9-8" edge="1">
          <mxGeometry relative="1" as="geometry">
            <Array as="points">
              <mxPoint x="694" y="1490" />
            </Array>
          </mxGeometry>
        </mxCell>
        <mxCell id="Uxr3or9GegXW-BEm9JX9-43" value="Validate state" style="verticalAlign=bottom;edgeStyle=elbowEdgeStyle;elbow=vertical;curved=0;rounded=0;endArrow=block;" parent="1" source="Uxr3or9GegXW-BEm9JX9-8" target="Uxr3or9GegXW-BEm9JX9-11" edge="1">
          <mxGeometry relative="1" as="geometry">
            <Array as="points">
              <mxPoint x="1127" y="1536" />
            </Array>
          </mxGeometry>
        </mxCell>
        <mxCell id="Uxr3or9GegXW-BEm9JX9-44" value="Security error" style="verticalAlign=bottom;edgeStyle=elbowEdgeStyle;elbow=vertical;curved=0;rounded=0;endArrow=block;" parent="1" source="Uxr3or9GegXW-BEm9JX9-8" target="Uxr3or9GegXW-BEm9JX9-7" edge="1">
          <mxGeometry relative="1" as="geometry">
            <Array as="points">
              <mxPoint x="697" y="1627" />
            </Array>
          </mxGeometry>
        </mxCell>
        <mxCell id="Uxr3or9GegXW-BEm9JX9-45" value="Show security warning" style="verticalAlign=bottom;edgeStyle=elbowEdgeStyle;elbow=vertical;curved=0;rounded=0;endArrow=block;" parent="1" source="Uxr3or9GegXW-BEm9JX9-7" target="Uxr3or9GegXW-BEm9JX9-5" edge="1">
          <mxGeometry relative="1" as="geometry">
            <Array as="points">
              <mxPoint x="387" y="1673" />
            </Array>
          </mxGeometry>
        </mxCell>
        <mxCell id="Uxr3or9GegXW-BEm9JX9-46" value="Token Request" style="verticalAlign=bottom;edgeStyle=elbowEdgeStyle;elbow=vertical;curved=0;rounded=0;endArrow=block;" parent="1" source="Uxr3or9GegXW-BEm9JX9-8" target="Uxr3or9GegXW-BEm9JX9-9" edge="1">
          <mxGeometry relative="1" as="geometry">
            <Array as="points">
              <mxPoint x="923" y="1764" />
            </Array>
          </mxGeometry>
        </mxCell>
        <mxCell id="Uxr3or9GegXW-BEm9JX9-47" value="Error response" style="verticalAlign=bottom;edgeStyle=elbowEdgeStyle;elbow=vertical;curved=0;rounded=0;endArrow=block;" parent="1" source="Uxr3or9GegXW-BEm9JX9-9" target="Uxr3or9GegXW-BEm9JX9-8" edge="1">
          <mxGeometry relative="1" as="geometry">
            <Array as="points">
              <mxPoint x="926" y="1923" />
            </Array>
          </mxGeometry>
        </mxCell>
        <mxCell id="Uxr3or9GegXW-BEm9JX9-48" value="Error details" style="verticalAlign=bottom;edgeStyle=elbowEdgeStyle;elbow=vertical;curved=0;rounded=0;endArrow=block;" parent="1" source="Uxr3or9GegXW-BEm9JX9-8" target="Uxr3or9GegXW-BEm9JX9-7" edge="1">
          <mxGeometry relative="1" as="geometry">
            <Array as="points">
              <mxPoint x="697" y="1969" />
            </Array>
          </mxGeometry>
        </mxCell>
        <mxCell id="Uxr3or9GegXW-BEm9JX9-49" value="Show error message" style="verticalAlign=bottom;edgeStyle=elbowEdgeStyle;elbow=vertical;curved=0;rounded=0;endArrow=block;" parent="1" source="Uxr3or9GegXW-BEm9JX9-7" target="Uxr3or9GegXW-BEm9JX9-5" edge="1">
          <mxGeometry relative="1" as="geometry">
            <Array as="points">
              <mxPoint x="387" y="2015" />
            </Array>
          </mxGeometry>
        </mxCell>
        <mxCell id="Uxr3or9GegXW-BEm9JX9-50" value="Tokens Response" style="verticalAlign=bottom;edgeStyle=elbowEdgeStyle;elbow=vertical;curved=0;rounded=0;endArrow=block;" parent="1" source="Uxr3or9GegXW-BEm9JX9-9" target="Uxr3or9GegXW-BEm9JX9-8" edge="1">
          <mxGeometry relative="1" as="geometry">
            <Array as="points">
              <mxPoint x="926" y="2106" />
            </Array>
          </mxGeometry>
        </mxCell>
        <mxCell id="Uxr3or9GegXW-BEm9JX9-51" value="Validate id_token nonce" style="curved=1;endArrow=block;rounded=0;" parent="1" source="Uxr3or9GegXW-BEm9JX9-8" target="Uxr3or9GegXW-BEm9JX9-8" edge="1">
          <mxGeometry relative="1" as="geometry">
            <Array as="points">
              <mxPoint x="847" y="2222" />
              <mxPoint x="847" y="2252" />
            </Array>
          </mxGeometry>
        </mxCell>
        <mxCell id="Uxr3or9GegXW-BEm9JX9-52" value="Validate token signatures" style="curved=1;endArrow=block;rounded=0;" parent="1" source="Uxr3or9GegXW-BEm9JX9-8" target="Uxr3or9GegXW-BEm9JX9-8" edge="1">
          <mxGeometry relative="1" as="geometry">
            <Array as="points">
              <mxPoint x="847" y="2298" />
              <mxPoint x="847" y="2328" />
            </Array>
          </mxGeometry>
        </mxCell>
        <mxCell id="Uxr3or9GegXW-BEm9JX9-53" value="Store tokens" style="verticalAlign=bottom;edgeStyle=elbowEdgeStyle;elbow=vertical;curved=0;rounded=0;endArrow=block;" parent="1" source="Uxr3or9GegXW-BEm9JX9-8" target="Uxr3or9GegXW-BEm9JX9-11" edge="1">
          <mxGeometry relative="1" as="geometry">
            <Array as="points">
              <mxPoint x="1127" y="2374" />
            </Array>
          </mxGeometry>
        </mxCell>
        <mxCell id="Uxr3or9GegXW-BEm9JX9-54" value="Success response" style="verticalAlign=bottom;edgeStyle=elbowEdgeStyle;elbow=vertical;curved=0;rounded=0;endArrow=block;" parent="1" source="Uxr3or9GegXW-BEm9JX9-8" target="Uxr3or9GegXW-BEm9JX9-7" edge="1">
          <mxGeometry relative="1" as="geometry">
            <Array as="points">
              <mxPoint x="697" y="2420" />
            </Array>
          </mxGeometry>
        </mxCell>
        <mxCell id="Uxr3or9GegXW-BEm9JX9-55" value="Show success message" style="verticalAlign=bottom;edgeStyle=elbowEdgeStyle;elbow=vertical;curved=0;rounded=0;endArrow=block;" parent="1" source="Uxr3or9GegXW-BEm9JX9-7" target="Uxr3or9GegXW-BEm9JX9-5" edge="1">
          <mxGeometry relative="1" as="geometry">
            <Array as="points">
              <mxPoint x="387" y="2466" />
            </Array>
          </mxGeometry>
        </mxCell>
        <mxCell id="Uxr3or9GegXW-BEm9JX9-56" value="API Request" style="verticalAlign=bottom;edgeStyle=elbowEdgeStyle;elbow=vertical;curved=0;rounded=0;endArrow=block;" parent="1" source="Uxr3or9GegXW-BEm9JX9-7" target="Uxr3or9GegXW-BEm9JX9-8" edge="1">
          <mxGeometry relative="1" as="geometry">
            <Array as="points">
              <mxPoint x="694" y="2542" />
            </Array>
          </mxGeometry>
        </mxCell>
        <mxCell id="Uxr3or9GegXW-BEm9JX9-57" value="Get access token" style="verticalAlign=bottom;edgeStyle=elbowEdgeStyle;elbow=vertical;curved=0;rounded=0;endArrow=block;" parent="1" source="Uxr3or9GegXW-BEm9JX9-8" target="Uxr3or9GegXW-BEm9JX9-11" edge="1">
          <mxGeometry relative="1" as="geometry">
            <Array as="points">
              <mxPoint x="1127" y="2588" />
            </Array>
          </mxGeometry>
        </mxCell>
        <mxCell id="Uxr3or9GegXW-BEm9JX9-58" value="Refresh Token Request" style="verticalAlign=bottom;edgeStyle=elbowEdgeStyle;elbow=vertical;curved=0;rounded=0;endArrow=block;" parent="1" source="Uxr3or9GegXW-BEm9JX9-8" target="Uxr3or9GegXW-BEm9JX9-9" edge="1">
          <mxGeometry relative="1" as="geometry">
            <Array as="points">
              <mxPoint x="923" y="2679" />
            </Array>
          </mxGeometry>
        </mxCell>
        <mxCell id="Uxr3or9GegXW-BEm9JX9-59" value="New Access Token" style="verticalAlign=bottom;edgeStyle=elbowEdgeStyle;elbow=vertical;curved=0;rounded=0;endArrow=block;" parent="1" source="Uxr3or9GegXW-BEm9JX9-9" target="Uxr3or9GegXW-BEm9JX9-8" edge="1">
          <mxGeometry relative="1" as="geometry">
            <Array as="points">
              <mxPoint x="926" y="2725" />
            </Array>
          </mxGeometry>
        </mxCell>
        <mxCell id="Uxr3or9GegXW-BEm9JX9-60" value="Update tokens" style="verticalAlign=bottom;edgeStyle=elbowEdgeStyle;elbow=vertical;curved=0;rounded=0;endArrow=block;" parent="1" source="Uxr3or9GegXW-BEm9JX9-8" target="Uxr3or9GegXW-BEm9JX9-11" edge="1">
          <mxGeometry relative="1" as="geometry">
            <Array as="points">
              <mxPoint x="1127" y="2771" />
            </Array>
          </mxGeometry>
        </mxCell>
        <mxCell id="Uxr3or9GegXW-BEm9JX9-61" value="Request with Access Token" style="verticalAlign=bottom;edgeStyle=elbowEdgeStyle;elbow=vertical;curved=0;rounded=0;endArrow=block;" parent="1" source="Uxr3or9GegXW-BEm9JX9-8" target="Uxr3or9GegXW-BEm9JX9-10" edge="1">
          <mxGeometry relative="1" as="geometry">
            <Array as="points">
              <mxPoint x="1027" y="2827" />
            </Array>
          </mxGeometry>
        </mxCell>
        <mxCell id="Uxr3or9GegXW-BEm9JX9-62" value="401 Unauthorized" style="verticalAlign=bottom;edgeStyle=elbowEdgeStyle;elbow=vertical;curved=0;rounded=0;endArrow=block;" parent="1" source="Uxr3or9GegXW-BEm9JX9-10" target="Uxr3or9GegXW-BEm9JX9-8" edge="1">
          <mxGeometry relative="1" as="geometry">
            <Array as="points">
              <mxPoint x="1030" y="2967" />
            </Array>
          </mxGeometry>
        </mxCell>
        <mxCell id="Uxr3or9GegXW-BEm9JX9-63" value="Refresh Token Request" style="verticalAlign=bottom;edgeStyle=elbowEdgeStyle;elbow=vertical;curved=0;rounded=0;endArrow=block;" parent="1" source="Uxr3or9GegXW-BEm9JX9-8" target="Uxr3or9GegXW-BEm9JX9-9" edge="1">
          <mxGeometry relative="1" as="geometry">
            <Array as="points">
              <mxPoint x="923" y="3013" />
            </Array>
          </mxGeometry>
        </mxCell>
        <mxCell id="Uxr3or9GegXW-BEm9JX9-64" value="New Access Token" style="verticalAlign=bottom;edgeStyle=elbowEdgeStyle;elbow=vertical;curved=0;rounded=0;endArrow=block;" parent="1" source="Uxr3or9GegXW-BEm9JX9-9" target="Uxr3or9GegXW-BEm9JX9-8" edge="1">
          <mxGeometry relative="1" as="geometry">
            <Array as="points">
              <mxPoint x="926" y="3059" />
            </Array>
          </mxGeometry>
        </mxCell>
        <mxCell id="Uxr3or9GegXW-BEm9JX9-65" value="Retry Request" style="verticalAlign=bottom;edgeStyle=elbowEdgeStyle;elbow=vertical;curved=0;rounded=0;endArrow=block;" parent="1" source="Uxr3or9GegXW-BEm9JX9-8" target="Uxr3or9GegXW-BEm9JX9-10" edge="1">
          <mxGeometry relative="1" as="geometry">
            <Array as="points">
              <mxPoint x="1027" y="3105" />
            </Array>
          </mxGeometry>
        </mxCell>
        <mxCell id="Uxr3or9GegXW-BEm9JX9-66" value="Protected Resource" style="verticalAlign=bottom;edgeStyle=elbowEdgeStyle;elbow=vertical;curved=0;rounded=0;endArrow=block;" parent="1" source="Uxr3or9GegXW-BEm9JX9-10" target="Uxr3or9GegXW-BEm9JX9-8" edge="1">
          <mxGeometry relative="1" as="geometry">
            <Array as="points">
              <mxPoint x="1030" y="3196" />
            </Array>
          </mxGeometry>
        </mxCell>
        <mxCell id="Uxr3or9GegXW-BEm9JX9-67" value="API Response" style="verticalAlign=bottom;edgeStyle=elbowEdgeStyle;elbow=vertical;curved=0;rounded=0;endArrow=block;" parent="1" source="Uxr3or9GegXW-BEm9JX9-8" target="Uxr3or9GegXW-BEm9JX9-7" edge="1">
          <mxGeometry relative="1" as="geometry">
            <Array as="points">
              <mxPoint x="697" y="3242" />
            </Array>
          </mxGeometry>
        </mxCell>
        <mxCell id="Uxr3or9GegXW-BEm9JX9-68" value="Display Data" style="verticalAlign=bottom;edgeStyle=elbowEdgeStyle;elbow=vertical;curved=0;rounded=0;endArrow=block;" parent="1" source="Uxr3or9GegXW-BEm9JX9-7" target="Uxr3or9GegXW-BEm9JX9-5" edge="1">
          <mxGeometry relative="1" as="geometry">
            <Array as="points">
              <mxPoint x="387" y="3288" />
            </Array>
          </mxGeometry>
        </mxCell>
        <mxCell id="Uxr3or9GegXW-BEm9JX9-69" value="Logout" style="verticalAlign=bottom;edgeStyle=elbowEdgeStyle;elbow=vertical;curved=0;rounded=0;endArrow=block;" parent="1" source="Uxr3or9GegXW-BEm9JX9-5" target="Uxr3or9GegXW-BEm9JX9-7" edge="1">
          <mxGeometry relative="1" as="geometry">
            <Array as="points">
              <mxPoint x="384" y="3344" />
            </Array>
          </mxGeometry>
        </mxCell>
        <mxCell id="Uxr3or9GegXW-BEm9JX9-70" value="Logout Request" style="verticalAlign=bottom;edgeStyle=elbowEdgeStyle;elbow=vertical;curved=0;rounded=0;endArrow=block;" parent="1" source="Uxr3or9GegXW-BEm9JX9-7" target="Uxr3or9GegXW-BEm9JX9-8" edge="1">
          <mxGeometry relative="1" as="geometry">
            <Array as="points">
              <mxPoint x="694" y="3390" />
            </Array>
          </mxGeometry>
        </mxCell>
        <mxCell id="Uxr3or9GegXW-BEm9JX9-71" value="Revoke Token" style="verticalAlign=bottom;edgeStyle=elbowEdgeStyle;elbow=vertical;curved=0;rounded=0;endArrow=block;" parent="1" source="Uxr3or9GegXW-BEm9JX9-8" target="Uxr3or9GegXW-BEm9JX9-9" edge="1">
          <mxGeometry relative="1" as="geometry">
            <Array as="points">
              <mxPoint x="923" y="3436" />
            </Array>
          </mxGeometry>
        </mxCell>
        <mxCell id="Uxr3or9GegXW-BEm9JX9-72" value="Clear tokens" style="verticalAlign=bottom;edgeStyle=elbowEdgeStyle;elbow=vertical;curved=0;rounded=0;endArrow=block;" parent="1" source="Uxr3or9GegXW-BEm9JX9-8" target="Uxr3or9GegXW-BEm9JX9-11" edge="1">
          <mxGeometry relative="1" as="geometry">
            <Array as="points">
              <mxPoint x="1127" y="3482" />
            </Array>
          </mxGeometry>
        </mxCell>
        <mxCell id="Uxr3or9GegXW-BEm9JX9-73" value="Logout Complete" style="verticalAlign=bottom;edgeStyle=elbowEdgeStyle;elbow=vertical;curved=0;rounded=0;endArrow=block;" parent="1" source="Uxr3or9GegXW-BEm9JX9-8" target="Uxr3or9GegXW-BEm9JX9-7" edge="1">
          <mxGeometry relative="1" as="geometry">
            <Array as="points">
              <mxPoint x="697" y="3528" />
            </Array>
          </mxGeometry>
        </mxCell>
        <mxCell id="Uxr3or9GegXW-BEm9JX9-74" value="Show login page" style="verticalAlign=bottom;edgeStyle=elbowEdgeStyle;elbow=vertical;curved=0;rounded=0;endArrow=block;" parent="1" source="Uxr3or9GegXW-BEm9JX9-7" target="Uxr3or9GegXW-BEm9JX9-5" edge="1">
          <mxGeometry relative="1" as="geometry">
            <Array as="points">
              <mxPoint x="387" y="3574" />
            </Array>
          </mxGeometry>
        </mxCell>
        <mxCell id="Uxr3or9GegXW-BEm9JX9-75" value="client_id, redirect_uri, code_challenge,&#xa;code_challenge_method, state, scope, nonce" style="fillColor=#ffff88;strokeColor=#9E916F;" parent="1" vertex="1">
          <mxGeometry x="550" y="889" width="507" height="68" as="geometry" />
        </mxCell>
        <mxCell id="Uxr3or9GegXW-BEm9JX9-76" value="code, state" style="fillColor=#ffff88;strokeColor=#9E916F;" parent="1" vertex="1">
          <mxGeometry x="550" y="1415" width="507" height="49" as="geometry" />
        </mxCell>
        <mxCell id="Uxr3or9GegXW-BEm9JX9-77" value="code, code_verifier, client_id,&#xa;client_secret, redirect_uri" style="fillColor=#ffff88;strokeColor=#9E916F;" parent="1" vertex="1">
          <mxGeometry x="771" y="1784" width="286" height="68" as="geometry" />
        </mxCell>
        <mxCell id="Uxr3or9GegXW-BEm9JX9-78" value="access_token, refresh_token,&#xa;id_token, expires_in" style="fillColor=#ffff88;strokeColor=#9E916F;" parent="1" vertex="1">
          <mxGeometry x="771" y="2126" width="286" height="68" as="geometry" />
        </mxCell>
        <mxCell id="Uxr3or9GegXW-BEm9JX9-79" value="Bearer token in Authorization header" style="fillColor=#ffff88;strokeColor=#9E916F;" parent="1" vertex="1">
          <mxGeometry x="771" y="2847" width="495" height="49" as="geometry" />
        </mxCell>
      </root>
    </mxGraphModel>
  </diagram>
</mxfile>
